<?xml version="1.0" encoding="UTF-8"?>
<svg xmlns="http://www.w3.org/2000/svg" xmlns:xlink="http://www.w3.org/1999/xlink" width="64" height="56.533333" viewBox="0 0 64 56.533333">
<path fill-rule="nonzero" fill="rgb(0%, 0%, 0%)" fill-opacity="1" d="M 14.476562 4.695312 C 21.570312 10.019531 29.199219 20.816406 32 26.613281 C 34.800781 20.820312 42.429688 10.019531 49.523438 4.695312 C 54.640625 0.855469 62.933594 -2.117188 62.933594 7.339844 C 62.933594 9.230469 61.851562 23.210938 61.214844 25.480469 C 59.007812 33.375 50.960938 35.386719 43.800781 34.167969 C 56.3125 36.296875 59.496094 43.351562 52.621094 50.40625 C 39.566406 63.800781 33.859375 47.042969 32.394531 42.75 C 32.128906 41.964844 32 41.59375 32 41.90625 C 31.996094 41.59375 31.871094 41.964844 31.605469 42.75 C 30.140625 47.042969 24.433594 63.800781 11.378906 50.40625 C 4.503906 43.351562 7.6875 36.296875 20.199219 34.167969 C 13.039062 35.386719 4.992188 33.375 2.785156 25.480469 C 2.148438 23.210938 1.066406 9.230469 1.066406 7.339844 C 1.066406 -2.117188 9.359375 0.855469 14.476562 4.695312 Z M 14.476562 4.695312 "/>
</svg>
