<?xml version="1.0" encoding="UTF-8"?>
<svg xmlns="http://www.w3.org/2000/svg" xmlns:xlink="http://www.w3.org/1999/xlink" width="64" height="64" viewBox="0 0 64 64" aria-labelledby="svgTitle">
<title id="svgTitle">Bluesky logo</title>
<path fill-rule="nonzero" fill="rgb(0%, 0%, 0%)" fill-opacity="1" d="M 18.546875 13.902344 C 23.992188 17.992188 29.851562 26.28125 32 30.730469 C 34.148438 26.285156 40.007812 17.992188 45.453125 13.902344 C 49.382812 10.957031 55.75 8.671875 55.75 15.933594 C 55.75 17.386719 54.917969 28.121094 54.429688 29.859375 C 52.734375 35.921875 46.558594 37.464844 41.058594 36.53125 C 50.667969 38.167969 53.109375 43.582031 47.832031 48.996094 C 37.808594 59.28125 33.429688 46.417969 32.304688 43.121094 C 32.101562 42.519531 32 42.230469 32 42.472656 C 31.996094 42.230469 31.898438 42.519531 31.695312 43.121094 C 30.570312 46.417969 26.191406 59.28125 16.167969 48.996094 C 10.890625 43.582031 13.332031 38.167969 22.941406 36.53125 C 17.441406 37.464844 11.265625 35.921875 9.570312 29.859375 C 9.082031 28.121094 8.25 17.386719 8.25 15.933594 C 8.25 8.671875 14.617188 10.957031 18.546875 13.902344 Z M 18.546875 13.902344 "/>
</svg>
