<svg xmlns="http://www.w3.org/2000/svg" xmlns:xlink="http://www.w3.org/1999/xlink" width="1800" height="1800"><defs><linearGradient id="b"><stop offset="0" style="stop-color:#222;stop-opacity:1"/><stop offset="1" style="stop-color:#222;stop-opacity:0"/></linearGradient><linearGradient id="a"><stop offset="0" style="stop-color:#555;stop-opacity:1"/><stop offset="1" style="stop-color:#555;stop-opacity:0"/></linearGradient><linearGradient xlink:href="#a" id="d" x1="661.222" x2="829.319" y1="937.894" y2="964.569" gradientUnits="userSpaceOnUse"/><linearGradient xlink:href="#b" id="e" x1="782.554" x2="1262.646" y1="1029.508" y2="1278.069" gradientUnits="userSpaceOnUse"/><clipPath id="c" clipPathUnits="userSpaceOnUse"><path d="M24.145 141.547h1800v1800h-1800z" style="font-variation-settings:&quot;wght&quot;300;fill:#fff;stroke-width:6;stroke-linecap:round"/></clipPath></defs><g clip-path="url(#c)" transform="translate(8.935 -94.129)"><path d="M894.846 365.598c-51.625 1.347-130.906 15.272-177.338 33.37-1.646.642-13.12 4.288-25.5 8.104-22.842 7.04-31.503 10.517-36.008 14.45-1.375 1.2-12.4 7.24-24.5 13.423-41.975 21.449-73.424 42.178-108.5 71.52-7.975 6.671-18.345 15.097-23.043 18.724-14.714 11.36-26.737 25.823-39.477 47.489-11.062 18.814-21.253 39.495-19.73 40.04 1.992.715 1.513 3.556-2.861 17.003-5.471 16.816-5.992 22.566-2.508 27.699 1.44 2.123 2.633 4.583 2.65 5.469.05 2.484 2.469 5.111 4.707 5.111 1.11 0 3.632.675 5.606 1.5s6.642 1.926 10.373 2.447c5.738.802 7.18 1.418 9.355 4 3.124 3.706 5.154 3.869 6.928.553 1.663-3.108 4.548-3.226 6.113-.25.651 1.237 2.256 3.538 3.567 5.113 1.977 2.377 2.34 3.82 2.144 8.5-.412 9.818 8.482 71.514 12.13 84.137 1.032 3.575 3.083 11.9 4.558 18.5 4.073 18.231 11.813 42.9 20.078 64 10.622 27.12 12.207 30.783 16.11 37.234 7.202 11.91 9.38 18.334 12.665 37.371 1.711 9.915 5.398 18.616 13.05 30.795 7.764 12.36 11.594 26.558 17.157 63.6.826 5.5 5.482 23.95 10.346 41s9.394 35.05 10.068 40 2.958 16.875 5.075 26.5 4.324 20.65 4.908 24.5c2.923 19.276 3.223 20.353 8.959 32.185 6.96 14.36 16.798 31.352 19.119 33.026.924.666 1.926 3.054 2.228 5.307.698 5.199 4.841 12.05 16.524 27.324 5.114 6.686 11.495 15.083 14.18 18.658 10.23 13.624 17.046 19.937 33.521 31.049 29.259 19.734 40.337 37.597 36.918 59.527-.418 2.678.07 6.965 1.418 12.5 1.129 4.633 3.015 13.149 4.191 18.924s3.225 15.81 4.555 22.3 2.418 12.387 2.418 13.102c0 1.341-34.931 17.895-51.3 24.31a3055 3055 0 0 0-22.7 9.054c-34.046 13.738-132.245 50.07-161 59.568-19.29 6.372-87.114 30.66-104.5 37.424-75.06 29.2-141.792 97.97-163.965 168.967C243.852 1761.73 195.681 1905.217 191 1917c-2.076 5.225-4.712 12.542-5.857 16.26s-4.864 14.293-8.262 23.5-6.746 18.315-7.44 20.24c-.693 1.925-4.5 11.825-8.46 22s-8.235 21.425-9.497 25c-1.261 3.575-10.256 26.75-19.988 51.5s-18.61 47.475-19.728 50.5c-1.12 3.025-2.363 5.95-2.764 6.5s-1.036 2.288-1.412 3.861c-.377 1.573-1.51 4.723-2.516 7s-2.619 6.389-3.584 9.139-2.145 5.427-2.623 5.95c-.478.522-.869 1.59-.869 2.374s-1.072 3.957-2.383 7.051a512 512 0 0 0-4.9 12.125c-4.055 10.464-23.056 57.993-30.783 77-3.913 9.625-10.492 26.933-14.62 38.463-7.056 19.711-12.215 33.461-14.273 38.037l-15.492 34.414c-17.887 39.73-16.897 36.077-10.881 40.143 2.658 1.796 8.432 6.109 12.832 9.584s14.453 11.166 22.34 17.09c17.907 13.45 19.074 14.348 28.7 22.128 4.326 3.498 8.562 6.624 9.413 6.948.85.323 5.145 3.253 9.543 6.51s8.983 6.295 10.188 6.753c5.49 2.088 57.692 37.992 84.316 57.992 15.386 11.559 14.098 11.218 48.5 12.854 10.056.478 19.246 1.452 22.5 2.385 6.875 1.971 92.638 2.042 95.098.078 5.662-4.52 130.406-5.343 140.377-.926 6.225 2.758 12.8 2.57 16.029-.455 2.63-2.463 2.868-2.494 16.332-2.082 17.232.527 27.823.598 31.664.21 3.69-.371 48.082.732 62.625 1.557 8.469.48 11.053.304 12.727-.869 1.822-1.276 13.971-1.41 91.875-1.015 49.375.25 92.585.384 96.023.297 10.748-.272 33.523-.307 38.75-.061 2.75.13 7.063-.101 9.584-.512 3.6-.587 5.318-.348 8 1.113 4.149 2.26 27.867 2.615 34.074.51 5.505-1.868 233.963-1.36 238.56.53 4.266 1.753 8.744 1.677 10.282-.177 1.922-2.315 22.89-2.016 35 .5 13.466 2.798 43.927 2.839 55.5.074 13.166-3.144 184.9-2.746 238.176.551 5.54.343 11.088.11 14-.586 13.36-3.195 25.268-3.62 30.252-1.078 5.811 2.965 64.492 2.78 67.797-.213 2.655-2.405 11.994-2.282 20.115.264 9.404 2.948 62.284 2.935 75.16-.018 12.375-2.837 309.695-3.106 325.762-.295 14.675 2.567 53.646 2.527 61.088-.064 4.493-1.565 7.853-1.823 21-1.606 20.419.338 21.15.283 21.15-1.564 0-4.672-73.43-221.078-75.586-222.758-2.54-1.98-4.437-6.637-22.908-56.209-16.135-43.3-25.988-71.077-47.53-134-25.166-73.51-28.791-83.677-30.841-86.5-.999-1.375-5.678-13.3-10.399-26.5-7.585-21.21-13.814-36.422-18.258-44.597-2.76-5.079-19.806-48.634-24.603-62.866l-4.875-14.46v-17.835c0-17.668-.023-17.857-2.453-20.039-1.35-1.21-3.516-4.249-4.815-6.752-1.298-2.503-3.833-6.688-5.63-9.3-5.142-7.474-11.775-24.487-17.627-45.213-11.595-41.06-17.02-52.32-39.952-82.936-12.845-17.15-16.532-22.953-19.062-30-2.218-6.177-3.285-7.392-16.961-19.287-16.467-14.322-20.5-18.402-20.5-20.738 0-12.542-68.807-41.893-157-66.969-22.184-6.308-26.933-7.89-35-11.664-11.133-5.208-35.685-15.125-57.5-23.227-8.39-3.115-40.031-13.85-93.19-31.619l-39.19-13.1-9.179-7.198c-63.838-50.07-65.525-36.462-77.88-38.006l-22.141-4.442c-33.778-7.39-43.357-19.334-61.39-62.645L1167.802 1190l-5.06-25.5.593-16.5c.327-9.075 1.044-18.975 1.592-22s1.126-27.013 1.283-53.306l.288-47.809 2.287-1.725c1.257-.948 5.082-2.803 8.5-4.123 23.222-8.968 32.53-15.554 38.441-27.2 15.789-31.109 20.16-48.576 22.322-89.177-35.316-51.726-81.878-457.981-266.252-526.983-1.88-.703-22.359-2.574-36.787-6.92-8.82-2.658-22.953-3.608-40.16-3.16z" style="fill:#8a8a8a"/><path d="M252.5 2549.844C153.432 2522.362.971 2464.86 24.918 2336.26c108.552-221.542 165.597-464.29 273.19-686.303 94.706-147.509 313.253-91.982 421.653-219.62 58.124-96.159-89.985-172.983-99.895-274.912C570.445 1026 545.006 888.991 489.39 761.817c-36.97-94.6-45.15-230.975 59.906-285.472 134.516-62.303 291.555-154.885 441.328-85.159 77.308 27.636 164.166 66.425 170.479 164.007 14.576 92.508 35.251 183.503 70.841 269.868-21.756 126.82-131.148 294.202-58.939 448.442 11.721 81.372-11.591 186.889 80.143 210.687 55.77 36.192 187.54-11.84 258.862 55.283 64.904 62.625 195.93 48.986 255.69 119.844 100.611 110.843 120.243 262.16 177.684 395.859 52.144 144.791 106.483 288.782 158.604 433.582-66.042 99.377-201.767 64.367-301.268 57.139-116.344-11.42-232.191 9.718-349.08 1.888-400.38-.415-800.771-1.588-1201.141 2.06m505.682-1054.586c19.017-56.66-12.544 10.266-4.772 2.373zm357.919-526.396c100.419-35.864-57.789-257.537-28.932-94.096 5.658 32.352 12.788 65.135 28.932 94.096m-72.15-230.51c-10.798-46.73-37.178-7.207 0 0" style="fill:#757575"/><path d="M494 2551.163c-127.464-23.319-277.404 41.391-379.07-64.349-203.298-71.282-17.258-257.498 9.342-389.582 63.442-143.408 94.346-301.424 168.062-439.196 91.368-120.237 225.404-117.585 333.618-151.473 73.544-30.073 195.116-102.487 82.444-207.665-136.66-78.566-78.263-264.478-151.707-364.937-54.283-108.488-64.816-233.692-114.354-324.686 79.757-149.57 261.143-222.958 422.91-241.06 110.576 8.753 275.594 46.37 281.738 163.377 61.795 27.95 21.052 232.427 91.291 320.908-4.626 96.855-5.895 141.04-64.77 163.085-99.245 119.47 2.314 333.132 26.106 482.497 64.037 110.26-16.494 155.538-111.52 159.412-99.26 137.65 107.492 122.083 153.479 14.963 101.653-46.116 45.68-218.63 66.374-215.833 145.952 144.3 426.66 80.039 522.149 286.765 77.52 192.553 140.826 392.209 215.273 587.297 61.94 114.38 112.601 277.238-78.81 216.004-486.697 1.936-973.327 1.783-1460.055-.704l-5.36 4.772zm265.795-1003.416c34.585-87.243-15.86-125.724-8.43-7.766zm358.705-512.055c59.65-121.719 5.793-372.517-157.351-333.381 72.33 35.862 146.976 111.26 93.058 197.217 40.573 33.794 33.195 111.17 64.293 136.164M868 971.243c-33.417-76.171-95.451-215.488-97.994-49.294-14.08 53.866 66.976 46.42 97.994 49.294m294.523-82.975c-5.374-24.99-6.283 12.975 0 0m60.94-34.516c-22.752-78.362-17.572 22.826 0 0m-207.02-213.305c84.872-103.963-192.124-190.604-94.217-91.536 45.983 6.142 58.02 90.58 94.218 91.536" style="fill:#6b6b6b"/><path d="M494 2551.128c-129.469-24.239-280.47 41.047-383.272-67.15-195.789-76.057-6.342-265.717 17.497-396.766 62.853-140.424 90.601-297.287 167.318-430.144 93.928-132.437 238.93-103.208 354.925-166.076 45.86-35.35 161.106-106.47 97.635 10.832-12.689 96.017 72.445 128.081 34.983 12.756 14.907-145.837-114.245-219.881-162.241-339.541-28.328-88.218-50.982-196.112 73.6-157.65l-153.63-521.485c138.21-96.274 337.97-187.752 495.014-81.125 69.204-8.593 165.804 167.226 128.827 121.554 10.553 43.077 31.743 228.342 74.565 320.635-13.945 42.97-46.473-79.411-21.484 15.052 48.903 90.785-71.599 43.236-25.938 130.43-97.027 96.811-41.191 317.557-9.483 456.126 44.47 99.346 20.764 198.13-98.91 178.916-119.874 145.653 124.423 165.057 165.66 29.616l537.783 14.947c106.216 136.037 118.894 316.984 193.945 469.452 16.244 127.834 165.585 298.882 103.186 402.062-272.181-16.586-545.465-.274-818.1-5.807-256.98 2.256-514.968-6.799-771.88 3.366M933.5 1785c33.687-10.912-27.864-20.35 0 0m138.272-1.234c-10.122-46.102-64.56-14.602 0 0m-176.335-9.316c139.534-88.88-200.355-235.37-68.995-49.915 17.092 23.241 41.53 41.036 68.995 49.915M1117.716 1045c49.505-110.315 31.501-320.61-106.632-362.921-56.386-36.856-249.25 30.86-88.787 30.427 132.776.267 197.973 146.24 56.699 196.741-104.923 69.183-230.958-206.425-215.3 9.717-25.72 134.509 171.371-25.841 228.978 69.919 56.763-34.512 87.728 25.603 125.041 56.117m-184.887-30.926c10.253-37.748-85.902 10.281 0 0M1173 908.456c-12.444-75.347-32.56-.22 0 0m-157.743-235.384c-9.535-17.89-23.39 19.627 0 0m19.84-3.142c65.623-133.936-178.45-243.913-167.972-116.254 71.564 19.585 106.955 79.721 167.973 116.254" style="fill:#636363"/><path d="M494 2551.166c-269.87 76.365-613.731-140.614-378.896-419.444 83.617-250.771 152.476-565.559 453.99-633.138 270.168-105.288 190.13 395.167 505.264 274.442 236.315-55.266 266.677-408.556 546.656-186.187 311.222 135.952 292.73 510.364 443.12 770.468 64.658 355.653-483.624 125.506-697.543 189.981-290.863-1.398-581.783-3.32-872.591 3.878m471.978-756.916c1.122-97.248-91.873 49.259 0 0m49.995-82.901c-243.732-73.87-308.736-454.513-371.572-647.318 203.946-240.579 621.763-23.122 485.76 289.88-10.228 231.782 31.444 199.997-114.188 357.438m-287.987-656.834c49.185 22.644-1.012-41.144 0 0m234.05-32.057c-28.874-67.798-101.762 27.238 0 0m195.016 5.64C1150.97 864.68 1048.24 378.87 867.166 575.62c-109.507 198.831 357.67 173.085 97.204 306.737-71.231 4.902-205.623-304.326-221 20.138-288.156 140.45-412.212-480.971-53.332-496.807 405.073-199.76 644.386 334.011 467.014 622.408m12.234-98.883c42.944-54.15-71.736-52.594 0 0" style="fill:#5b5b5b"/><path d="M494 2551.166c-154.132-7.556-328.309 17.984-447.703-103.81-77.043-148.04 91.337-289.883 111.045-435.904 75.496-151.05 72.357-392.217 269.527-440.966 120.044.858 225.25-123.53 321.653-110.794-14.79 123.025 45.063 357.213 212.452 283.104 71.965 103.507 278.14-8.428 328.55-124.306 52.038-48.347-12.241-221.966 96.405-112.14 144.943 92.31 365.601 80.617 451.001 251.1 89.883 255.522 188.107 509.021 276.096 765.742-142.517 64.793-301.407-5.967-450.783 23.396-386.625 6.265-777.2-7.91-1161.368 4.025zm519.644-843.712c-164.873-9.356-234.8-166.5-245.216-307.918-67.805-107.23-289.67-356.623-46.257-388.674 112.739-80.943 256.538-15.499 367.868 35.661 145.07-15.875 18.21 216.37 39.051 305.803-21.167 90.574 31.444 223.15-61.356 237.307-19.402 37.406-11.841 95.617-54.09 117.821M728.5 1056c46.981-4.49-6.336-29.685 0 0m249.5-23.952c-18.633-63.621-139.53-11.455 0 0m155.392 485.532c-25.424-74.347 63.445-29.117 0 0m23.642-492.043c-7.697-129.59-32.389-253.935-92.873-367.848 17.404-147.297-235.64-268.792-233.407-74.598 130.901 31.2-103.085 165.192 54.86 135.494 198.641-48.132 185.67 254.092-14.19 160.872-99.353-72.712-88.76-55.14-116.385 45.274-65.678 60.884-175.38 44.442-193.047 10.794-26.258-77.174-115.246-245.48-101.64-356.77 94.095-122.372 250.867-191.143 400.959-211.912 131.747 1.658 259.188 58.468 304.528 185.717 8.22 101.634 44.285 216.774 63.39 302.841-75.71-83.545 54.676 87.582-38.407 92.37 38.749 27.91 9.793 83.402-33.788 77.766m12.74-94.537c32.357-84.157-65.49-34.111 0 0m-589.58-106.75c37.246-79.763-33.764 26.196 0 0m34.319-30.256c24.623-52.874-38.813 27.423 0 0m81.157-54.998c17.076-53.06-65.746 30.357 0 0" style="fill:#555"/><path d="M493.75 2551.284c-96.77-15.614-197.756 3.37-295.234-7.935-65.319-45.541-140.95-91.876-196.499-142.35 95.58-223.947 182.97-451.7 257.718-683.543 65.401-66.821 59.418-123.553 167.035-157.871 50.928-18.059 98.963 16.119 97.532-13.615 85.365-3.28 164.883-107.967 222.27-88.18-46.698 77.925 33.805 189.066 81.52 271.97 53.995 56.998 106.14 69.174 178.344 64.74 7.098-43.013 48.253 26.046 97.501-14.155 102.418-42.989 188.132-133.587 221.654-239.772-14.275-46.461-41.351-124.052 21.734-57.44 68.048 73.713 169.914 40.72 240.368 113.076 108.621 22.7 233.832 75.708 263.408 194.79 33.014 69.192 36.377 144.112 75.126 213.333 63.934 179.413 132.923 356.716 192.913 537.501-82.592 13.698-188.953-1.677-281.225 2.922-194.003 5.032-385.567 1.421-579.92 1.995-121.79 5.382-246.197-6.721-369.158 1.761-127.896-5.098-258.147-3.138-385.241-.038l-6.096 3.362-3.75-.552zm479.687-864.375c-86.582 6.549-87.749-144.48-149.932-118.432-39.982-68.077-37.49-186.073-98.426-250.077-49.908-40.308-110.64-104.987-101.037-170.404-30.765-59.448-2.183-102.55 64.458-87.68 34.193-49.527 46.924-25.814 15.975 12.532 84.098-14.512-6.274-99.65 92.423-92.379 62.527-28.986 81.907 29.368 117.317 46.031 34.585-18.476 66.937 28.453 78.805-5.033 31.667 22.185 132.69 51.081 106.71 54.185 45.452-8.7 59.938 72.736 45.712 108.99-6.279 52.521-31.406 102.45-19.09 146.057-5.738 33.527-30.662 58.21-43.726 94.388l-33.756 128.002c-8.026 38.759 7.71 132.151-61.916 130.219-8.121 2.795-9.812 3-13.517 3.6m77.573-297.916c7.998-30.359-48.104 12.44 0 0m-74.421-161.07c-23.854-33.745-4.372 19.433 0 0M1642 1591.113q-2463-2386.67 0 0m-983-533.468c4.77-12.484 7.346 4.573 0 0m514-42.547c-38.154-16.49-24.697-170.267-9.567-58.598 14.423 28.4 86.777 44.867 9.567 58.598M567.107 961c-35.278-89.942-78-181.168-78.912-280.543-77.11 1.363-52.199-94.726-2.831-135.708 71.751-61.39 147.444-115.073 245.684-128.743 35.101-18.155-147.803 29.13-30.283-9.318 100.57-31.408 225.947-70.26 319.104-1.016 30.656 71.513 61.198-3.488 90.131 32.837 16.853-.53-7.327 54.337 20.772 29.691 10.746 53.77-1.307 81.27 41.013 69.063-28.724 47.16 10.245 56.016 6.813 113.713 23.245 61.957-2.96 126.91 54.024 158.39 14.823 86.439-3.708 45.292-36.028-3.152-45.963 37.367 83.265 88.838 1.581 120.635-57.584-53.223-69.208-128.045-102.05-198.195-68.758-48.393-19.887-135.497-66.013-190.654-54.174-68.855-154.647-83.648-214.98-16.926-37.092 36.572-35.024 86.494-12.382 107.57 87.461 34.303-54.257 56.31-38.952 41.818-41.958 50.378-139.705 26.192-165.206 98.313-79.258 46.722-38.39 133.898-31.485 192.225M651.5 477.055c60.274-18.809-7.755 15.18-13.228 4.376zm-16.625-8.973c15.336-1.589 142.736-44.912 45.743-25.082-7.17 1.87-81.873 33.526-45.743 25.082m110.564-29.15c48.296-7.514-53.384-.72 0 0m-106.53 634.146c-61.922-21.625-86.267-112.29-69.506-217.87 30.294-60.86 116.805-101.06 184.23-84.282 16.428-39.143 40.808-25.198 76.683-31.99 65.306-8.127 133.007-20.83 193.571 22.457 63.522 58.65-6.253 89.22-53.29 105.634-61.661 49.556-139.03 13.117-166.932-56.04-79.185-69.14-4.127 196.392-85.462 178.17 4.695 6.431-79.142 139.793-79.295 83.921m530.164-125.713c-9.829-45.919 39.467 9.98 0 0m44.448-2.753c-7.172-39 27.5 4.696 0 0" style="fill:url(#d);fill-opacity:1"/><path d="M494 2551.263c-328.152 112.223-581.358-233.5-353.585-504.219 38.883-258.847 334.414-680.64 610.47-453.57 63.792 150.052 167.28 206.826 271.52 198.785 138.737-10.7 282.675-132.013 373.704-260.27 349.264-31.905 537.453 375.119 611.292 666.17 123.671 322-273.94 421.227-512.041 345.02-333.792 2.032-667.573 5.476-1001.36 8.084m449.715-883.627c-181.685-183.96-463.808-722.912 26.147-651.158 271.371 120.2 128.433 501.845-26.147 651.158M776.26 1259.972c17.985-44.936-31.515 19.607 0 0m194.207-18.613c58.413-76.786-90.903 2.953 0 0M941 1232.46c63.644-7.63-42.539-22.73 0 0m-16.428-74.043c5.524-67.335-44.025 43.678 0 0m200.615-7.417c54.44-17.601-34.116-23.218 0 0m10.813-15.313c9.613-50.547-41.027 30.69 0 0m-79.513 286.287c-49.565-27.363 27.275-9.553 0 0m-429.509-288.67c-69.501-118.419 123.062 17.974 0 0m377.73-89.655c-46.153 49.395-14.394-40.712 0 0m-439.303-86.383C441.24 501.53 607.21 469.936 997.58 433.46c9.736 118.13 185.344 517.204 91.062 203.077-170.53-283.827-526.481-18.851-531.865 235.343l.715 42.685zm134.884-23.291c-208.121-72.997 221.66-184.346 18.85-1.352l-17.933 1.286zM878.5 881.498c-136.555-229.06 321.74-14.904 0 0" style="fill:#434343"/><path d="M493.5 2551c-171.78 6.71-407.497-2.506-480.075-168.178C98.07 2167.095 187.46 1952.802 255.378 1731c74.356-63.55 137.732-127.93 194.223-145.727 99.781-31.074 186.858-101.511 299.05-127.538-46.265 165.37 103.514 389.4 296.271 340.346 128.432-28.823 271.709-140.125 275.716-280.64-26.069-146.87 77.884 96.837 148.523 30.213 71.497-1.888 33.109 92.24 142.203 65.872 48.749-30.413 194.11 66.674 230.213 145.523 49.901 148.905 104.693 314.86 166.765 472.441 17.328 112.8 211.641 365.228-13.119 314.7-496.675 1.03-993.231.296-1490-.562l-4.467 5.65zM394 1615c13.77-5.331-5.918-5.465 0 0m1119.865-.532-11.779.763zm9.445-1.904c-.26-7.942-19.837 10.487 0 0M649 1541.944c-8.727-23.81 22.783-54.495-9.545 2.492l3.345 2.21zm-3.351-21.472c3.905-9.42 6.284 6.602 0 0m763.101 21.77c-5.344-9.825-12.383 3.13 0 0m-51.228-32.054c-8.226-6.346.24 12.2 0 0m-675.586-5.648c15.092-10.279-31.135.178 0 0m3.502-7.64c14.084 2.371-4.918-5.283 0 0M326.15 1662.75l1.667-2.958zM313 1636.206c25.176-69.68 294.952-129.672 124.647-62.861-41.15 21.908-91.886 24.555-124.647 62.86m54-33.633 16.338-7.663zm1185.25-4.034c-41.16-21.382 25.136-.312 0 0m93.75-3.707c-14.612-6.715 17.74 4.923 0 0m-669.33-8.504c-146.685-50.65-166.195-234.08-297.46-314.616-115.528-100.819 66.218-216.236 112.839-273.337 78.965-7.328 139.573 35.245 221.206 79.843-6.307 125.876 68.276 37.069 68.209 31.36 122.3 138.839-65.423 236.208-102.554 335.794-38.145 40.794 5.77 89.335-2.24 140.956m-38.952-134.356c55.843 4.937-22.507-46.152 0 0m-156.525-183.73c33.24-70.74-89.71-13.523 0 0m196.763-9.994c42.322-59.807-87.403-191.915-97.972-95.105 73.545 2.156 29.143 96.504 97.972 95.105m81.86-98.575c-2.062-9.37-4.348 11.341 0 0M417.8 1583.8l4.731-4.326zm72.875-22.458c.975-10.797 11.489 5.878 0 0M517 1560.5h5.898zm-18.554-.587c-.285-7.414 9.422 6.536 0 0m876.333-23.163c-13.827-18.205 10.252 2.62 0 0m-37.279-46.966c-18.822-12.626 13.678-.121 0 0M556.214 935.25c-45.363-122.733-64.35-237.531-113.076-323.97 30.35-57.51 76.491-64.56 71.732-29.089 45.775-39.621 151.612-132.098 51.054-37.272-60.368 99.629 100.627-131.072 177.476-82.756 79.947 14.255 28.2-20.684 30.058-18.914 106.456 33.94 9.56-43.452 133.185-16.369-50.157-31.03-238.707-9.702-80.332-52.043 125.668-19.893 244.52 50.936 308.378 125.445 16.352 61.58-70.62-13.838-6.112 67.103 77.075 87.844 43.059 192.431 27.197 283.366-34.346-150.602-7.025-229.666-140.474-337.955-149.991-170.724-265.598 115.598-430.75 82.611-95.135 87.763-25.538 228.381-28.336 339.843m-50.733-225c14.679-72.617-23.082-16.984 0 0m7.248-70.33c30.55-59.408-9.946-25.02 0 0m65.861-57.676c72-41.329 138.77-103.824 20.561-35.642-7.023 4.422-55.87 48.93-20.56 35.642M724.966 507.6c91.995-17.269-49.2-3.868 0 0m162.698-95.727c-26.342-16.63-10.533 8.686 0 0M737.777 911.87q-1106.665-1367.805 0 0m468.796-18.05c-99.097-4.17 13.26-109.634 0 0m-313.488-25.872c-148.863-44.052-72.374-151.515 52.205-121.66 186.561 28.628 21.67 117.305-52.205 121.66m336.193-20.698c-67.62-82.81 22.798-73.224 0 0M1092.02 689.535c-44.493-44.642 22.432 10.711 0 0M521 539.039c33.587-51.706 49.713-21.246 0 0m-27 2012.224c-126.468-27.028-275.547 40.703-376.562-64.165-203.37-72.622-18.006-258.26 9.07-390.75 56.407-128.176 85.523-272.33 149.362-393.92 36.223-67.203 258.264-162.206 78.903-91.345-85.69 46.466 104.268-96.562 121.697-70.79 89.828-28.863-45.916 48.915 69.835 1.215 82.006-10.935 249.2-191.33 201.317-7.014 19.465 127.438 96.555 276.601 247.127 266.472 166.362 2.623 363.57-169.127 318.173-335.99 105.743 89.974 233.407 119.541 362.72 161.862 153.05 40.739 193.986 203.535 232.285 335.819 73.647 192.863 146.32 386.517 211.409 582.587-538.164 2.094-1076.171 2.364-1614.21-.084l-3.59 6.051zm485.279-918.246c-133.154-112.419-193.078-273.452-323.269-390.06-65.936-94.49 177.938-290.99 136.963-248.182 82.817 9.405 224.436 27.655 245.59 143.52 58.367-107.415 154.921 199.275-2.036 216.473-67.808 77.24-36.55 237.94-57.248 278.25m-191.793-373.194c-24.59-73.668-66.259 27.193 0 0m185.502-3.8c44.382-51.199-94.261-183.198-86.09-91.489 88.834 2.505.358 77.841 86.09 91.489M556.914 940.275c-40.795-115.584-69.54-243.159-115.039-320.479 6.685-50.256 185.081-168.717 86.658-62.857 14.722-2.953 151.394-115.826 256.666-106.242-138.266-19.044 88.59 14.522 8.801-22.303 180.918-40.357-234.597 5.764-9.844-44.234 121.8-30.848 307.55.739 349.9 111.022 3.023 123.272 97.16 239.774 25.711 365.802-97.411-134.545-54.318-382.61-266.603-397.682-106.73 52.92-180.385 145.088-309.666 144.32-74.035 80.687-23.135 212.537-26.584 332.653M1116 717.557c18.555-27.94-14.342.142 0 0M600.328 562.065c111.294-50.499 52.684-63.402 0 0m307.097-133.148-10.483-5.316ZM826 422.082l-4.633-1.012zm372.872 481.448c-89.463-78.289 57.297-31.453 1.882 1.436zM901.71 747.138q-1352.563-1120.707 0 0m324.385 97.502c-65.125-75.985 28.295-69.52 0 0m-86.344-293.407c-20.07-34.258 55.36 9.45 0 0M487 546.526c28.37-35.232 43.336-25.542 0 0m103-65.994c40.769-33.133 63.831-20.469 0 0m86.5-64.5 6.409-1.827z" style="fill:#353535"/><path d="M494 2551c-129.09-22.99-272.972 30.548-384.37-63.898-177.894-82.662-20.726-246.998 11.152-371.807 50.081-130.595 96.325-262.627 140.805-395.223 127.462-104.239 235.578-152.278 379.73-221.237 78.574-37.917 133.239-65.782 104.857 47.186 22.375 148.362 146.252 300.99 312.077 250.297 140.095-33.732 282.308-164.923 261.266-319.29 47.672 98.412 223.635 79.047 202.124 140.71 170.823-17.62 333.557 106.624 361.886 276.88 78.507 213.631 160.495 426.227 231.82 642.467-161.894 21.93-326.193-.493-489.19 10.203-376.705 2.164-758.883-10.44-1132.157 3.712m152.418-996.607c132.366-112.144-33.859-80.148 0 0M378 1584.847c74.213-54.752 174.978-46.082 34.732-6.469zm544.492-85.874c-83.721-126.76-296.508-185.136-238.805-355.702 59.767-78.414 82.202-81.974 87.918-72.82-46.244-159.887 307.75 71.952 221.562 10.928 82.527 167.77-156.713-46.067-218.351 78.706-95.104 115.078 10.626 160.512 80.935 118.742 89.767 13.268 307.822-67.421 242.294-47.71 62.093 86.672-183.718 143.268-175.553 267.856M756 1097.45c4.918-19.164-13.76 3.057 0 0m48.25 143.083q-1206.375-1860.8 0 0m204.75-53.451c.206-14.02 8.467 8.017 0 0m-292.515-87.832c1.266-32.298 7.7 8.214 0 0m117.775-95.462c14.147-47.944 48.879 31.12 0 0m-236.058-84.044q-897.303-1379.616 0 0M1172.2 863.8c-7.186-41.748 42.931 11.426 0 0m-640.106-5.471c-62.89-86.613 32.23-153.824 0 0m359.897-7.667C689.107 775.843 1076 686.549 974.334 824.09c-95.863-43.411-44.71 24.762-82.343 26.572M520.916 722.717c-56.916-60.996 73.034-169.794 6.611-47.15-7.257 10.682 9.558 42.057-6.61 47.15m637.685-11.467c-14.275-55.482 26.86 28.517 0 0m-666.916-26.628c-11.216-22.031 19.62-7.462 0 0m-49.258-25.142c1.375-114.871 80.096-39.849 0 0m708.386-.23c-82.445-88.857-154.491-212.227-279.907-229.034 138.963-6.65-189.694-41.87-7.38-58.478 155.776-21.532 234.327 125.042 284.651 244.594 5.535 12.756 12.903 30.07 2.636 42.918m-672.391 1.985c-3.18-57.91 55.336-59.329 0 0m196.07-99.247c-47.935-37.289 170.071-79.65 12.679-71.81-50.931-41.852 223.002-22.972 54.142 46.703-21.73 9.785-44.54 16.756-66.82 25.107m446.625-39.46c-39.211-42.712 42.233 12.12 0 0m-14.556-23.248c-19.289-32.156 32.26 10.258 0 0m-12.128-29.316c-16.112-23.46 43.17 12.238 0 0M493.5 2551c-128.374-22.68-272.511 31.46-382.553-64.052-179.364-81.056-24.352-245.932 8.674-370.481 50.997-131.858 98.233-265.185 140.922-399.967 64.226-33.766 188.334-100.437 185.928-129.483 113.24-7.916 332.853-249.75 306.278-18.168 17.857 221.042 288.343 305.38 443.094 160.335 78.948-59.922 144.98-159.154 119.1-262.072 92.22 101.453 333.25 165.892 243.681 147.356 150.435 1.976 288.055 109.501 319.177 258.029 75.438 225.296 169.61 444.161 239.027 671.63-541.077 8.393-1082.508-4.881-1623.328 6.873m152.812-1000.75c129.342-97.381-46.227-62.187 0 0m-330.53 83.156c31.882-69.427 285.22-127.566 120.798-58.25-42.512 13.472-89.069 24.332-120.797 58.25m616.201-115.356c-100.037-74.964-178.867-180.698-264.514-267.535-34.783-117.67 120.242-314.967 206.496-229.23 117.118.991 152.003 106.484 160.734 189.47 88.787-131.532 107.292 144.879-11.5 155.27-89.717 31.863-76.266 94.408-91.216 152.025m-185.32-221.118c155.623-68.68 229.218-30.306 248.196-48.553 58.885-160.409-244.543-135.199-199.08-69.185 115.98-90.957 137.245 130.517 6.667 59.178-68.12-80.657-63.046-7.7-55.782 58.56m36.404-50.806c-12.208-23.378 17.423-4.185 0 0M596.221 919.75c-88.533-167.297 296.833-135.332 117.808-9.361-38.385 11.06-78.605 5.502-117.808 9.361m-51.458-23.451c-31.08-81.77-79.602-312.065 27.921-295.472-79.456 78.45-12.57 212.51-27.92 295.472m628.057-22.049c-24.446-65.965 63.472 1.501 0 0m-260.32-9.232c-150.24-7.012-76.933-169.866 43.763-116.684 116.094 48.414-6.946 105.811-43.763 116.684m244.556-38.94c7.854-151.068-72.193-293.927-214.046-362.491-56.648-10.85-173.329-41.37-39.612-35.586-49.653-37.252-214.84-21.583-55.122-57.514 135.065-3.58 316.342 81.79 275.359 201.035 64.41 77.657 72.143 164.678 33.421 254.557m53.029-19.833c-35.376-38.307 33.911-7.39 0 0M491.132 686.247c-16.035-30.046-100.911-47.376-16.26-110.98 40.179-32.422-14.034 94.08 36.528 19.575 12.558 32.005-8.771 62.95-20.268 91.405m-19.274-41.491c4.28-15.745-9.634 12.33 0 0m63.16-63.006c34.443-59.985 97.558-100.728 16.717-17.368zm31.504-8.486c72.133-114.31 285.624-139.219 259.82-118.438 40.061 101.69-305.25 143.443-117.985 62.057 101.264-53.324-164.865 19.982-141.835 56.38" style="fill:url(#e);fill-opacity:1"/><path d="M21.117 2374.42c54.777-125.034 88.262-160.559 92.857-209.152Zm1313.076-833.947q-2001.29-2310.71 0 0M170.94 2524.067 18.49 2374.972c102.145-228.302 187.714-422.668 331.045-668.984 2.043-.674 3.942-2.21 4.712-3.809l1.289-2.679c201.13-33.35 508.908 182.414 694.88 100.474 66.947-32.009 133.718-78.341 197.883-117.528l114.084-143.216c420.16 219.617 583.671 567.579 733.71 1004.77-641.305-1.23-1283.559-12.254-1925.155-19.933m13.207 9.657c-5.466-3.388-10.595-7.245-15.646-11.217l180.188-818.569c1.821-.601 3.312-1.723 3.312-2.492l366.774-144.1c20.735-30.216 55.065 78.026 60.208 93.654 9.39 36.015 32.925 63.805 54.865 92.753 77.386 43.157 119.305 75.328 219.653 54.88 88.179-20.707 136.223-52.963 199.769-124.361l53.684-78.096c59.758-26.989 102.254-75.135 24.445-59.907-10.293-22.341 31.138 6.968 33.886-2.269 138.008 124.283 519.306 204.574 476.216 295-19.674 34.418 46.54 84.794 112.768 227.11l142.845 487.943c-12.434-.117-14.933.162-19.11 1.62-630.216-2.391-1263.235-7.829-1893.857-11.949M757 1142c0 4.907-1.21 5.201 10.555-2.563 110.939-45.004 100.323-26.579-10.555 2.563m173.5-312.582c-10.945-2.53-15.996-4.198-21.773-7.186l-6.773-3.504-7.634 5.136c8.092-126.202 78.076 9.018 36.18 5.554M169.007 1991.5c51.173-235.437 96.746-227.761 172.675-310.91 4.604-5.013 7.506-7.234 11.372-8.703 2.856-1.084 7.724-3.277 10.819-4.872 149.402-110.826 221.356 64.585 330.06-114.417 1.576-2.292 14.994-8.126 25.567-30.368 2.525-5.312 10.5-1.518 10.5 4.996 0 1.762 9.348 13.067 12.12 14.658 3.232 1.855 7.598 13.451 7.064 18.761-.204 2.026 1.179 6.654 3.884 13 44.156 149.73 132.414 254.132 293.432 225.95 198.245-42 286.502-229.75 286.032-282.228-.384-2.563-.26-4.367.3-4.367 8.286 22.786 33.638 6.124 35.159 24.888 20.235 79.716 130.905 85.872 200.761 109.73 64.978 18.91 123.061 47.503 183.147 78.33 14.334 9.337 99.347 81.883 91.076 103.098-.578 1.08 4.145 21.873 17.015 43.954 3.732 6.404 30.8 40.597 30.975 49.186 75.826 205.247 160.787 410.518 225.347 619.564.588 2.647 1.801 2.5-18.56 2.26-645.729-122.576-1293.817-362.074-1928.745-552.51M584 1531.508c0-.408 54.694-26.737 77.676-41.622 15.084-9.77 27.95-16.488 39.486-20.618 53.244-19.063-44.928 27.435-60.09 37.607-15.375 10.316-57.072 28.312-57.072 24.633m110.2-12.708c-5.156-5.156 2.655-20.946 13.068-26.416 4.86-2.553 4.875-.134.104 16.378-2.638 9.129-9.132 14.078-13.172 10.038m216.3-73.275c-14.985-7.14-20.924-9.199-31.826-11.035-25.276-1.176-26.734-13.813-42.14-24.99-32.154-22.445-59.12-47.771-66.502-62.46-4.725-9.402-4.813-11.576-.55-13.598 7.614-3.614 9.257-18.442 2.043-18.442-9.957 0 16.006-27 22.587-27 .691 0 3.264-.972 5.718-2.16 9.395-4.548 19.872-2.394 18.701 3.846.22 8.264 14.148 14.714 23.078 10.307 8.813-4.499 15.794-5.993 27.997-5.993 10.798 0 10.835-.01 19.923-4.489 19.893-12.224 30.566-6.789 48.882-6.511 16.354 0 5.701 9.77 14.283 4.91 3.678-2.083 13.293 2.23 15.807 7.092 1.543 2.984 3.824 3.899 4.996 2.003 1.956-3.165 4.295-2.92 9.805 1.025 6.09 4.36 7.203 4.702 8.06 2.47.97-2.531 3.711-1.687 8.323 2.563 5.072 4.676 8.6 5.037 9.15.937.494-3.696 5.774-6.936 11.382-6.985 4.65-.04 12.49-11.743 13.483-20.128.906-7.654 3.279-4.157 5.798-13.879 4.097-15.812 6.428-14.227 11.28-6.759l2.313-3.16c4.22-5.763 7.92 8.512 6.957 28.911-.498 10.539-5.122 14-18.703 14-8.247 0-9.872 1.95-8.343 10.01.907 4.784.803 5.569-.994 7.482-2.948 3.137-2.488 6.757 1.482 11.68 8.894 11.027 5.672 17.215-7.7 14.79-9.899-1.795-14.912.542-16.23 7.567-2.598 6.265-24.855 17.471-28.588 17.471-12.513 0-14.658 11.13-18.974 12.5-2.333.741-2.427 1.683-.668 6.731 4.039 11.598 11.694-4.3 13.95 2.019 1.641 4.6-10.753 13.57-26.376 19.086-23.926 8.448-28.894 11.557-31.299 19.584-1.153 5.81-5.353 8.998-9.654 12.454 2.978 2.618 12.385 12.482 2.549 8.151m131.5-122.828c0-4.683 1.717-7.159 7.638-11.017 3.224-2.1 7.623-6.038 9.776-8.75s4.655-4.93 5.562-4.93c.906 0 2.563-1.237 3.682-2.75 1.184-1.6 4.215-3.533 7.246-4.621 3.294-1.183 7.077-3.688 10.28-6.809 8.686-8.46 11.14-3.511 2.816 5.68-2.75 3.037-5 6.128-5 6.87 0 2.623-7.009 10.19-13.71 14.803-19.444 13.383-28.29 16.986-28.29 11.524m-315.042-8.052c-12.335-4.411-25.688-24.107-28.782-25.09-4.187-1.328-6.81-21.055-14.843-21.055-12.73-5.879 11.565-30.031 17.261-31.049 5.817-2.391 11.817-5.195 17.245-8.564 7.505-4.76 8.373-4.127 13.078 9.522l3.34 9.689c-8.068 7.523-7.749 20.279-4.257 21.192 7.406 1.937-13.078 19.71 1.328 19.71 7.066 0 8.456 1.757 5.193 6.56-6.549 9.636 5.215 24.37-9.563 19.085M818 1234.317c-7.939-1.303-9.448-3.44-5.859-8.294 2.338-3.162 2.363-2.67-.974-18.76-1.438-6.935-2.482-9.698-4.187-11.078-2.747-2.225-2.36-3.109 4.507-10.273 4.369-4.559 5.071-4.962 5.982-3.43 4.22 7.1 7.034 8.241 8.68 3.518 1.268-3.636 2.106-3.76 3.816-.566 4.476 8.364 18.484 3.286 23.73-8.603 1.958-4.438 1.854-4.404 5.885-1.945 6.591 4.019 2.395 7.407 11.438 15.032 6.483 5.466 9.339 10.949 9.42 18.082.31 16.438-29.501 18.838-43.138 25.335-3.057 1.59-12.628 2.077-19.3.982m-119.12-30.482c-5.12-21.412-9.313-19.594-6.306-22.917 3.234-3.574-1.712-9.435-12.6-14.93-8.01-4.044-8.744-9.567-2.834-21.324 3.396-6.757 7.86-10.318 7.86-6.271 0 1.836 2 2.53 4.555 1.58 2.858-1.063 8.445-7.644 8.445-9.949 0-5.005 11 12.938 11-.17 0-.835 10.825-2.271 5 9.146-2.101 4.118-2.613 10.483-1.042 12.966 2.375 3.755 2.906-10.288 5.94-11.911 7.597-4.114 16.427-23.994 17.26-7.587.483 9.546 1.468 10.577 6.038 6.317 4.65-4.335 5.936-13.202 2.77-19.109-7.056-13.166 5.2 2.739 14.775-12.235 1.205-1.884 1.294-1.869 3 .521 11.955 16.74 13.525 17.688 12.582 7.595l-.602-6.443 10.672-.614c2.391-11.869 4.917-23.71 7.673-35.5 4.114-17.438 3.615-20.545-1.854-11.532-3.348 5.516-7.573 6.344-9.292 1.821-4.746-12.48 16.025-3.39 3.843-14.898-8.84-8.353-4.142-9.941-4.721-16.773-.564-6.648 2.419-12.238 9.446-16.975 7.677-5.176 21.832.612 14.012 4.175-3.44 1.567-3.223 4.757.45 6.656 6.08 3.145 17.88 1.051 21.99-3.9 11.642-11.264 14.555 18.325 18.66 26.272 2.186 6.417 18.18 35.074 18.845 15.896.183-12.522 1.52-13.913-10.169-8.13l-.623-9.487c-.656-9.992-.305-11.737 1.789-8.873 1.676 2.291 3.239 2.213 4.546-.23 2.211-3.62 24.133-12.171 19.695 2.095-3.755 12.07-4.88 27.013-2.453 32.568 1.185 2.711 1.24 2.612 1.51-2.685.379-7.478 1.05-10 2.658-10 2.56 0 4.078 5.77 2.788 10.594-.794 2.97-.85 5.162-.174 6.939 1.805 4.746 1.184 10.522-1.512 14.056-2.986 3.915-3.054 4.6-.671 6.756 3.601 3.26 6.171 1.6 6.171-3.986 0-8.829 4.948 15.264 12.495 11.825 2.77-1.262 4.35-5.739 2.632-7.457-2.916-2.916.054-9.727 4.242-9.727 3.022 0 9.007 3.707 13.59 8.418 5.515 5.67 5.656 5.666 6.505-.168 1.525-10.473 5.878-11.834 16.794-5.25 14.844 8.953 32.1 11.886 33.985 15.83 2.729 5.711 7.757 2.588 7.757-4.818 0-13.797 14.021 13.913 20.684 16.877 13.954 6.207-10.926 19.044-.552 29.748 10.525 10.858-17.64 8.767-20.11 10.328-2.61 1.651-4.906-1.859-8.092-12.376-2.817-14.346-16.398-19.214-27.837-25.748-18.89-2.231-37.812-7.94-56.767-3.894-37.498 8.787-78.018 11.07-111.826 30.945-11.612 7.128-24.42 10.755-31.459 23.282-3.997 7.62-6.77 10.867-8.66 10.142-4.608-1.768-9.143 13.825-17.298 24.184-5.485 6.904-5.774 13.299-15.248 15.042-8.356-1.995-8.058-9.006-9.954-16.707m94.161.395c-.056-1.723 4.753-9.23 5.913-9.23 2.365 0 1.696 2.13-1.925 6.135-2.17 2.4-3.965 3.794-3.988 3.095m-40.804-118.48c-7.87-15.709-6.39-17.587 4.62-5.864 9.534 10.15 9.496 10.155 11.697-1.534 1.94-10.308 3.245-10.489 3.376-.468.28 21.51-10.5 7.218-13.417 13.866-1.452 3.31-1.76 3.015-6.276-6m141.919-10.594c-2.159-2.158-3.587-12.523-2.985-21.656.37-5.626.174-5.558 9.636-3.331 16.727 3.938 1.862-11.46 14.233-5.149 4.928 2.515 4.921 3.016-.106 7.192l-4.066 3.377c1.071 5.184 5.151 15.425-3.533 5.652-11.287-13.101-11.719 4.197-8.286 7.303 4.547 4.116.172 11.677-4.893 6.612M757.695 1009c9.67 0 19.626 9.323 11.055 10.352-25.894 3.11-14.329-10.352-11.056-10.352m77.378-8.412c-1.918-2.312 9.05-10.194 14.41-9.588 26.457 2.99-8.736 16.425-14.41 9.588m-218.192-99.091c-8.34-4.533-7.32-34.09 1.862-34.696 5.487-.363 10.331-5.342 10.598-10.893l.159-3.298c-7.467 1.077-24.294-1.416-21.277-11.896.902-1.768 1.95-4.339 2.33-5.714 4.174-15.099 40.447-5.086 40.447-14.49 0-4.147 25.02-11.778 39-11.895 13.84-.116 44.394 4.385 49.95 7.358 9.867 8.415 19.967 18.098 13.183 38.766-.997 3.04-2.133 6.034-2.133 9.999 0 8.697-10.842 17.661-30.477 25.2-10.952 4.204-12.268 4.095-8.494-.702 3.205-4.074 1.178-4.975-6.796-3.018-9.27 2.274-19.096 2.548-23.361 3.377-2.047.397-3.665-.387-7.311-3.542-6.562-5.68-4.058-2.217-11.627-8.2-6.818-5.389-8.498-4.622-8.285 3.782.143 5.649.032 5.92-2.995 7.365-2.562 1.223-6.5 6.351-7.899 10.287-.882 2.48-23.026 4.301-26.874 2.21m247.847-59.729c-3.021-1.751-3.892-2.94-4.377-5.977-.552-3.448-.89-3.791-3.729-3.795-20.881-.025-2.897-30.784-8.34-38.912-1.487-2.22-3.607-6.802-7.255-15.683-1.509-3.671.954-6.943 5.016-6.662 1.901.131 5.032.269 6.957.306 4.491.086 20.353-3.603 20.761-4.828 2.812-8.437 54.443-9.768 56.239-9.811 7.425-.182 14.625-.46 16-.618 3.365-.388 3.765 3.178 1.134 10.101l-1.97 5.186 2.106 1.962c2.516 2.344 10.467 5.2 20.528 8.778 1.707.607 6.494 3.316 11.128 5.068 18.527 7.006 28.018 15.907 20.577 19.298-3.784 1.724-9.918-.553-15.464-5.742-9.837-9.2-12.893-5.502-3.596 4.353 6.038 6.402 7.793 9.208 5.757 9.208-1.447 0 .99-.36-10.492-4.455-32.249 13.207-33.04 34.362-74.514 11.455-2.205 0-7.964 6.29-9.037 9.87-2.947 9.837-18.558 16.04-27.429 10.898M515.91 653.046c3.637-1.855 24.68-31.79 26.775-29.695.22.22-2.223 5.519-5.43 11.775-4.11 5.459-9.808 35.893-17.967 29.761-3.723-3.723-4.159 8.83-.759 21.883 4.655 36.606-23.736-22.31-2.619-33.724m-70.96 6.393c-2.739-3.3 8.968-39.187 10.825-33.616.695 2.084 2.554 1.271 6.938-3.031 9.352-9.179-.712 10.834-.712 18.777 0 7.01-13.939 21.62-17.05 17.87m697.683-21.189c-6.644-28.321-2.45-24.588 10.039-2.892 2.895 5.03-8.698 8.611-10.04 2.892m-41.698-31.722c-6.805-3.546-20.78-18.94-15.275-16.829 8.378 3.215-10.326-13.109 8.52-1.959 17.752 10.504 23.954 27.75 6.755 18.788m27.805-4.278c-2.975-3.312-.122-6.455-5.6-9.736-1.85-1.108-5.378-3.797-7.842-5.976-4.227-7.127-6.476 2.815-9.317-3.585-2.76-6.667-10.038-5.046-26.652-14.389-4.464-2.51-8.633-4.564-9.265-4.564-5.365 0-16.499-15.97-14.859-21.313 2.989-9.74-8.82-7.788-3.704-20.033 2.544-6.088 1.98-8.567-3-13.205-6.247-5.817-3.228-5.512-7.159-9.615-3.945-4.118-.633-5.045 4.42-1.237 15.156 11.425 30.512 32.195 28.812 38.97-2.245 8.943 20.021 21.432 24.624 26.658l2.885 3.275c-.617-3.731-1.487-7.41-2.68-11-2.797-8.153-.603-7.496 10.612 3.176 10.824 10.3 12.944 13.608 10.471 16.34-1.563 1.728-1.429 2.177 2.286 7.66 15.323 22.616 9.476 22.482 5.968 18.574m-466.384-48.966c-6.554-.824-7.298-3.723-2.208-8.6 4.446-4.26 14.543-8.612 16.778-7.23 2.278 1.408 2.4 7.57.197 9.916-1.167 1.243-2.122 3.242-2.122 4.444 0 2.274-3.25 2.652-12.645 1.47m27.118-18.328c-1.406-2.275 5.178-6.594 15.9-10.431 7.977-2.855 10.87-4.43 13.627-7.416 5.1-5.525 42.339-15.561 43.505-11.725 3.829 12.595.886 16.518-16.316 21.755-3.679 1.12-7.679 2.667-8.889 3.439-5.197 3.313-46.167 7.064-47.827 4.378m377.175-33.012c-14.74-16.43-24.058-17.727-41.648-23.868-8.633-3.156-11-2.85-11 1.424 0 3.316-1.209 4.59-2.45 2.581-1.305-2.112-14.2-8.38-23.769-11.554C961.983 461.971 943.566 451 955 451c9.618 0-10.857-7.997-14.136-12.309-3.702-4.866-4.693-6.967-4.079-8.64 1.262-3.438 2.782-3.436 13.715.024 9.054 2.866 36.345 8.11 38.554 7.408 21.225-6.737-24.538-9.853-29.014-25.839-1.725-6.162-4.646-8.627-11.293-9.53-6.63-.9-15.033-6.53-24.497-16.413-8.561-8.942-8.48-11.069.27-7.063 15.635 7.158 77.456-4.954 61.406 26.507-5.773 11.316 5.038 4.582 8.234 13.422 3.59 9.93 13.29-10.165 22.889 8.548 3.623 7.065 10.62 2.435 16.033 13.045 4.913 5.623 14.515 12.841 21.4 16.451 4.434 1.934 10.859 9.776 21.28 16.127 14.265 9.749 15.158 15.286 1.787 20.422-2.341 1.066-10.077.109-15.299-1.895-3.17-1.215-.62 2.822 5.975 9.461 8.752 8.811 7.853 9.505-1.577 1.218m-35.626-9.138c-1.534-1.43-1.929-2.337-1.131-2.603 1.295-.432 5.109 2.518 5.109 3.952 0 1.45-1.53.932-3.978-1.35M751 482.392c-35.04-6.773-41.285-9.07-33.25-12.232 8.922-3.51 19.63-3.636 20.519-.24 1.808 6.914 41.731 8.449 41.731 1.605 0-3.497 1.183-3.172 5.384 1.478 4.888 5.411 4.632 5.995-2.634 6.009-6.88.013-16.03 2.094-18.6 4.231-1.408 1.17-3.34 1.045-13.15-.851m172.126-30.983c-8.905-1.812-15.95-5.222-19.496-9.437-5.59-6.644-3.18-7.857 7.752-3.901 11.2 4.053 13.516 3.535 11.063-2.475-1.307-3.202 7.032-1.242 13.531 3.18 13.464 9.158 6.023 16.474-12.85 12.633m6.75-44.867c-6.655-.434-59.036-8.399-111.185-8.488-36.946 2.906-33.987-5.012-.711-9.622 6.782-.845 12.354-2.763 15.72-5.41 3.806-2.994 4.527-.577 11.037-5.547 5.489-4.191 8.306-5.058 11.275-3.468 3.346 1.79 8.988-.675 8.988.902 0 .55-1.58 1.297-3.511 1.66-11.224 2.105-1.35 3.143 12.537 1.317 10.24-1.346 17.715-1.346 19.337 0 .66.548 4.494 1.683 8.52 2.523 15.693 3.271 17.108 6.845 3.058 7.718-9.319.579-14.474 2.122-10.858 3.25 7.774-1.298 41.169 15.516 35.792 15.165m-41.269-12.124c-1.101-6.106-4.508-3.388-5.134-2.374-.923 1.492 1.417 3.956 3.756 3.956 1.4 0 1.59-.407 1.378-1.582" style="fill:#050505;fill-opacity:1"/></g></svg>